<?xml version="1.0" standalone="no"?>
<!DOCTYPE svg PUBLIC "-//W3C//DTD SVG 20010904//EN"
 "http://www.w3.org/TR/2001/REC-SVG-20010904/DTD/svg10.dtd">
<svg version="1.0" xmlns="http://www.w3.org/2000/svg"
 width="471.000000pt" height="471.000000pt" viewBox="0 0 471.000000 471.000000"
 preserveAspectRatio="xMidYMid meet">
<metadata>
Created by potrace 1.14, written by Peter Selinger 2001-2017
</metadata>
<g transform="translate(0.000000,471.000000) scale(0.100000,-0.100000)"
fill="#000000" stroke="none">
<path d="M2326 4233 c-4 -16 -7 -32 -20 -98 -29 -147 -59 -281 -64 -286 -21
-20 -156 -53 -226 -55 -204 -8 -327 -158 -276 -340 7 -25 16 -47 21 -49 4 -3
-3 -36 -16 -73 -169 -485 -167 -482 -190 -482 -7 0 -15 -4 -17 -9 -7 -18 -87
-60 -105 -55 -15 4 -29 -4 -49 -30 -34 -40 -109 -97 -118 -89 -3 4 -6 1 -6 -5
0 -6 -15 -18 -34 -27 -19 -9 -42 -25 -52 -36 -9 -10 -22 -19 -29 -19 -7 0 -24
-11 -39 -25 -14 -13 -27 -24 -29 -23 -6 5 -97 -55 -97 -64 0 -5 -4 -6 -10 -3
-5 3 -10 1 -10 -4 0 -6 -5 -11 -11 -11 -6 0 -31 -15 -57 -32 -26 -18 -50 -32
-54 -30 -5 1 -8 -2 -8 -6 0 -5 -17 -17 -37 -28 -36 -18 -43 -23 -77 -51 -8 -7
-17 -13 -20 -13 -8 0 -101 -63 -108 -74 -5 -7 -8 -7 -8 -1 0 6 -7 1 -15 -9 -8
-11 -15 -16 -15 -12 0 8 -93 -55 -98 -67 -2 -4 -8 -5 -13 -1 -5 3 -9 0 -9 -5
0 -6 -7 -11 -15 -11 -8 0 -15 -4 -15 -10 0 -5 -5 -10 -10 -10 -13 0 -164 -100
-168 -112 -2 -4 -7 -6 -12 -3 -4 2 -17 -3 -28 -13 -11 -10 -37 -27 -56 -37
-20 -11 -36 -23 -36 -27 0 -5 -5 -8 -10 -8 -6 0 -16 -5 -23 -10 -7 -6 -20 -17
-31 -24 -13 -8 -14 -13 -5 -13 15 0 111 -13 144 -18 23 -4 225 -34 268 -40 16
-2 40 -6 55 -9 15 -3 45 -8 67 -11 22 -3 51 -8 65 -10 14 -3 100 -16 190 -29
91 -14 210 -32 265 -41 55 -8 118 -18 140 -21 40 -5 125 -17 200 -30 22 -3 54
-8 70 -10 17 -2 44 -6 60 -10 34 -7 61 -11 91 -13 16 -1 34 -28 82 -123 66
-132 133 -228 252 -359 66 -73 189 -181 237 -207 14 -8 73 -236 108 -416 3
-16 8 -33 11 -38 8 -12 50 -10 61 5 8 10 30 94 48 187 3 14 17 76 32 138 l26
112 62 44 c117 84 313 297 385 419 23 39 31 40 140 22 19 -3 44 -8 55 -9 11
-2 43 -7 70 -11 48 -7 61 -9 115 -19 25 -5 55 -10 145 -22 28 -3 59 -8 70 -10
31 -6 98 -16 190 -29 28 -3 60 -8 73 -11 51 -9 69 -12 117 -18 28 -3 61 -8 75
-10 25 -5 66 -11 138 -22 20 -3 62 -9 92 -14 30 -5 78 -12 105 -15 28 -3 57
-8 65 -10 8 -3 34 -7 58 -10 51 -6 52 -4 17 103 -13 42 -26 86 -28 97 -2 11
-9 33 -16 49 -6 16 -13 38 -16 50 -2 11 -4 21 -5 21 -1 0 -3 7 -5 15 -2 8 -10
34 -18 57 -9 22 -13 44 -10 47 4 3 2 6 -4 6 -5 0 -10 6 -11 13 0 6 -3 19 -5
27 -2 8 -7 32 -11 52 -5 21 -11 36 -15 34 -3 -2 -7 9 -8 25 -1 16 -10 50 -18
76 -9 27 -19 57 -21 68 -6 25 -10 36 -16 55 -3 8 -13 42 -23 75 -9 33 -22 80
-30 105 -42 139 -137 463 -140 478 -3 9 -16 55 -31 102 -14 47 -27 90 -28 95
-1 6 -4 15 -8 20 -7 12 -21 73 -17 77 1 2 -3 13 -10 26 -7 13 -14 31 -16 40
-2 9 -18 64 -36 122 -17 58 -32 110 -33 115 -2 11 -33 114 -46 155 -5 14 -18
59 -30 100 -12 41 -25 85 -31 98 -5 13 -9 32 -9 43 0 11 -4 17 -10 14 -6 -3
-7 1 -4 9 3 9 2 16 -4 16 -6 0 -8 9 -5 20 3 11 1 20 -4 20 -5 0 -9 8 -10 18
-3 40 -8 62 -13 62 -4 0 -7 7 -8 15 -1 8 -3 22 -4 30 -1 8 -4 15 -8 15 -3 0
-7 8 -8 18 -3 31 -7 47 -15 60 -5 6 -6 12 -2 12 3 0 0 10 -6 23 -7 12 -14 33
-15 46 -2 13 -6 31 -10 40 -4 9 -8 18 -8 21 -4 18 -30 106 -32 108 -1 2 -31
-17 -67 -42 -35 -25 -67 -42 -71 -39 -3 4 -6 -1 -6 -10 0 -9 -3 -16 -7 -15
-15 3 -63 -22 -63 -32 0 -5 -7 -10 -16 -10 -9 0 -12 -5 -8 -12 5 -8 2 -9 -10
-5 -13 5 -17 3 -13 -7 4 -10 0 -14 -11 -13 -10 0 -45 -18 -79 -41 -34 -23 -67
-42 -72 -42 -6 0 -11 -4 -11 -8 0 -4 -27 -24 -60 -43 -33 -18 -60 -37 -60 -41
0 -5 -5 -8 -11 -8 -5 0 -37 -18 -69 -40 l-60 -40 -37 23 c-55 35 -102 48 -190
52 -43 3 -107 14 -143 26 -77 27 -70 22 -74 45 -3 11 -16 75 -30 144 -15 69
-29 140 -32 159 -10 61 -22 81 -48 81 -15 0 -27 -7 -30 -17z m1258 -265 c-3
-4 -11 -5 -19 -1 -21 7 -19 12 4 10 11 0 18 -5 15 -9z m50 4 c3 -5 -1 -9 -9
-9 -8 0 -12 4 -9 9 3 4 7 8 9 8 2 0 6 -4 9 -8z m-268 -56 c1 -7 -4 -13 -12
-13 -9 0 -11 4 -4 12 5 7 8 15 5 18 -3 4 -2 5 2 2 4 -3 8 -11 9 -19z m40 -11
c-1 -8 -5 -17 -8 -21 -4 -3 -5 2 -4 13 2 10 -2 25 -8 33 -9 13 -9 13 6 2 9 -7
15 -19 14 -27z m79 26 c3 -5 2 -12 -3 -15 -5 -3 -9 1 -9 9 0 17 3 19 12 6z
m-239 -26 c-1 -8 -5 -17 -8 -21 -5 -4 -4 16 1 34 3 9 9 -1 7 -13z m324 1 c-7
-7 -13 -7 -20 0 -6 6 -3 10 10 10 13 0 16 -4 10 -10z m0 -30 c0 -3 -4 -8 -10
-11 -5 -3 -10 -1 -10 4 0 6 5 11 10 11 6 0 10 -2 10 -4z m-220 -20 c0 -3 -4
-8 -10 -11 -5 -3 -10 -1 -10 4 0 6 5 11 10 11 6 0 10 -2 10 -4z m-107 -21 c-3
-9 -8 -14 -10 -11 -3 3 -2 9 2 15 9 16 15 13 8 -4z m244 2 c0 -8 -6 -14 -14
-14 -9 0 -10 4 -2 14 6 7 12 13 14 13 1 0 2 -6 2 -13z m39 -2 c-1 -8 -5 -17
-8 -21 -5 -4 -4 16 1 34 3 9 9 -1 7 -13z m44 1 c0 -3 -4 -8 -10 -11 -5 -3 -10
-1 -10 4 0 6 5 11 10 11 6 0 10 -2 10 -4z m-145 -15 c3 -5 2 -12 -3 -15 -5 -3
-9 1 -9 9 0 17 3 19 12 6z m158 -26 c-7 -21 -12 -19 -10 4 0 11 5 18 9 15 4
-3 5 -11 1 -19z m-313 1 c0 -2 -7 -7 -16 -10 -8 -3 -12 -2 -9 4 6 10 25 14 25
6z"/>
</g>
</svg>
